<svg xmlns="http://www.w3.org/2000/svg" xmlns:xlink="http://www.w3.org/1999/xlink" width="160" zoomAndPan="magnify" viewBox="0 0 120 37.5" height="50" preserveAspectRatio="xMidYMid meet" version="1.0"><defs><g/><clipPath id="b066422768"><path d="M 0.789062 0 L 119.210938 0 L 119.210938 37.007812 L 0.789062 37.007812 Z M 0.789062 0 " clip-rule="nonzero"/></clipPath></defs><g clip-path="url(#b066422768)"><path fill="#ffffff" d="M 0.789062 0 L 119.210938 0 L 119.210938 37.007812 L 0.789062 37.007812 Z M 0.789062 0 " fill-opacity="1" fill-rule="nonzero"/><path fill="#ffffff" d="M 0.789062 0 L 119.210938 0 L 119.210938 37.007812 L 0.789062 37.007812 Z M 0.789062 0 " fill-opacity="1" fill-rule="nonzero"/></g><g fill="#171716" fill-opacity="1"><g transform="translate(1.978426, 27.906031)"><g><path d="M 1.90625 -0.40625 C 1.75 0.0507812 1.410156 0.28125 0.890625 0.28125 C 0.378906 0.28125 -0.203125 0 -0.859375 -0.5625 C -0.222656 -2.425781 1.113281 -5.421875 3.15625 -9.546875 C 5.207031 -13.671875 6.539062 -16.757812 7.15625 -18.8125 C 7.238281 -19.144531 7.28125 -19.378906 7.28125 -19.515625 C 7.28125 -19.828125 7.050781 -20.3125 6.59375 -20.96875 L 6.328125 -21.3125 L 6.390625 -21.734375 C 8.191406 -22.234375 10.179688 -22.484375 12.359375 -22.484375 L 14.28125 -22.359375 C 14.507812 -22.046875 14.691406 -21.5625 14.828125 -20.90625 C 15.160156 -19.300781 15.328125 -15.171875 15.328125 -8.515625 C 15.328125 -5.941406 15.550781 -4.128906 16 -3.078125 C 16.164062 -2.671875 16.332031 -2.46875 16.5 -2.46875 C 16.664062 -2.46875 17.179688 -2.679688 18.046875 -3.109375 L 18.46875 -3.296875 L 19.09375 -2.15625 C 18.289062 -1.375 17.398438 -0.753906 16.421875 -0.296875 C 15.441406 0.148438 14.539062 0.375 13.71875 0.375 C 11.582031 0.375 10.515625 -1.28125 10.515625 -4.59375 L 10.515625 -7.09375 C 9.960938 -7.21875 9.125 -7.28125 8 -7.28125 C 6.882812 -7.28125 5.664062 -7.175781 4.34375 -6.96875 C 3.28125 -4.519531 2.46875 -2.332031 1.90625 -0.40625 Z M 10.578125 -9.25 L 10.609375 -12.921875 C 10.609375 -16.128906 10.472656 -18.304688 10.203125 -19.453125 C 10.023438 -19.453125 9.894531 -19.429688 9.8125 -19.390625 C 9.226562 -17.753906 8.675781 -16.375 8.15625 -15.25 C 7.632812 -14.125 7.070312 -12.921875 6.46875 -11.640625 C 5.875 -10.359375 5.503906 -9.5625 5.359375 -9.25 Z M 10.578125 -9.25 "/></g></g></g><g fill="#171716" fill-opacity="1"><g transform="translate(18.413849, 27.906031)"><g><path d="M 1.578125 0.09375 L 1.359375 0.09375 C 1.316406 -0.0703125 1.296875 -0.457031 1.296875 -1.0625 C 1.296875 -1.664062 1.582031 -3.285156 2.15625 -5.921875 C 2.726562 -8.554688 3.015625 -10.066406 3.015625 -10.453125 C 3.015625 -11.109375 2.71875 -11.828125 2.125 -12.609375 L 1.84375 -12.984375 L 1.875 -13.390625 C 3.007812 -13.710938 4.832031 -13.875 7.34375 -13.875 C 7.601562 -13.320312 7.734375 -12.550781 7.734375 -11.5625 C 7.960938 -11.9375 8.445312 -12.441406 9.1875 -13.078125 C 9.925781 -13.710938 10.6875 -14.03125 11.46875 -14.03125 C 12.601562 -14.03125 13.171875 -13.035156 13.171875 -11.046875 C 13.066406 -10.921875 12.925781 -10.757812 12.75 -10.5625 C 12.570312 -10.363281 12.210938 -10.082031 11.671875 -9.71875 C 11.128906 -9.363281 10.609375 -9.144531 10.109375 -9.0625 C 10.085938 -9.0625 9.90625 -9.34375 9.5625 -9.90625 C 9.226562 -10.476562 8.976562 -10.765625 8.8125 -10.765625 C 8.28125 -10.578125 7.8125 -10.257812 7.40625 -9.8125 C 6.4375 -5.445312 5.953125 -2.617188 5.953125 -1.328125 C 5.953125 -0.867188 5.960938 -0.539062 5.984375 -0.34375 C 5.242188 -0.0507812 3.773438 0.09375 1.578125 0.09375 Z M 1.578125 0.09375 "/></g></g></g><g fill="#171716" fill-opacity="1"><g transform="translate(28.135544, 27.906031)"><g><path d="M 10.859375 -13.65625 C 10.816406 -13.125 10.640625 -12.507812 10.328125 -11.8125 C 9.523438 -11.894531 8.765625 -11.9375 8.046875 -11.9375 L 7.46875 -11.9375 C 6.5 -7.226562 6.015625 -4.296875 6.015625 -3.140625 C 6.015625 -2.523438 6.144531 -2.21875 6.40625 -2.21875 C 6.675781 -2.21875 7.378906 -2.484375 8.515625 -3.015625 L 9.09375 -1.96875 C 7.207031 -0.40625 5.460938 0.375 3.859375 0.375 C 3.117188 0.375 2.507812 0.144531 2.03125 -0.3125 C 1.5625 -0.78125 1.328125 -1.398438 1.328125 -2.171875 C 1.328125 -2.941406 1.414062 -3.8125 1.59375 -4.78125 C 1.78125 -5.75 2.03125 -6.9375 2.34375 -8.34375 C 2.65625 -9.75 2.890625 -10.882812 3.046875 -11.75 C 2.265625 -11.6875 1.679688 -11.625 1.296875 -11.5625 C 1.253906 -11.8125 1.234375 -12.148438 1.234375 -12.578125 C 1.234375 -13.015625 1.265625 -13.375 1.328125 -13.65625 L 3.328125 -13.65625 C 3.492188 -14.789062 3.578125 -15.863281 3.578125 -16.875 L 3.546875 -17.859375 L 3.546875 -17.953125 C 5.191406 -18.523438 6.742188 -18.8125 8.203125 -18.8125 C 8.285156 -18.382812 8.328125 -17.851562 8.328125 -17.21875 C 8.328125 -16.59375 8.148438 -15.40625 7.796875 -13.65625 Z M 10.859375 -13.65625 "/></g></g></g><g fill="#171716" fill-opacity="1"><g transform="translate(35.672111, 27.906031)"><g/></g></g><g fill="#171716" fill-opacity="1"><g transform="translate(40.200165, 27.906031)"><g><path d="M 7.03125 7.09375 C 5.976562 7.09375 5.101562 6.832031 4.40625 6.3125 C 3.707031 5.800781 3.359375 5.09375 3.359375 4.1875 C 3.359375 1.75 5.835938 0.148438 10.796875 -0.609375 C 10.984375 -1.296875 11.132812 -1.96875 11.25 -2.625 C 10.269531 -2.03125 9.242188 -1.734375 8.171875 -1.734375 C 6.203125 -1.734375 4.613281 -2.445312 3.40625 -3.875 C 2.207031 -5.300781 1.609375 -7.15625 1.609375 -9.4375 C 1.609375 -11.71875 2.050781 -13.828125 2.9375 -15.765625 C 3.832031 -17.710938 5.109375 -19.316406 6.765625 -20.578125 C 8.421875 -21.847656 10.179688 -22.484375 12.046875 -22.484375 C 13.921875 -22.484375 15.453125 -22.023438 16.640625 -21.109375 C 17.835938 -20.191406 18.4375 -19.023438 18.4375 -17.609375 C 18.4375 -16.765625 18.285156 -16.078125 17.984375 -15.546875 C 17.816406 -15.523438 17.585938 -15.515625 17.296875 -15.515625 C 15.671875 -15.515625 14.445312 -15.78125 13.625 -16.3125 L 13.65625 -19.734375 C 13.144531 -20.171875 12.476562 -20.390625 11.65625 -20.390625 C 10.363281 -20.390625 9.222656 -19.398438 8.234375 -17.421875 C 7.242188 -15.453125 6.75 -13.054688 6.75 -10.234375 C 6.75 -8.347656 7.050781 -6.960938 7.65625 -6.078125 C 8.269531 -5.191406 9 -4.75 9.84375 -4.75 C 11.113281 -4.75 12.253906 -5.378906 13.265625 -6.640625 C 14.285156 -7.910156 15.015625 -9.425781 15.453125 -11.1875 L 17.171875 -10.890625 C 16.367188 -4.859375 15.148438 -0.351562 13.515625 2.625 C 11.890625 5.601562 9.726562 7.09375 7.03125 7.09375 Z M 5.421875 4.078125 C 5.421875 4.671875 5.914062 4.96875 6.90625 4.96875 C 7.414062 4.96875 8.015625 4.65625 8.703125 4.03125 C 9.398438 3.414062 9.929688 2.609375 10.296875 1.609375 C 9.066406 1.722656 7.945312 2.003906 6.9375 2.453125 C 5.925781 2.910156 5.421875 3.453125 5.421875 4.078125 Z M 5.421875 4.078125 "/></g></g></g><g fill="#171716" fill-opacity="1"><g transform="translate(56.350578, 27.906031)"><g><path d="M 10.390625 -13.109375 C 10.429688 -13.148438 10.546875 -13.425781 10.734375 -13.9375 C 11.722656 -13.9375 13.054688 -13.640625 14.734375 -13.046875 C 14.203125 -11.296875 13.773438 -9.460938 13.453125 -7.546875 C 13.140625 -5.640625 12.984375 -4.28125 12.984375 -3.46875 C 12.984375 -2.65625 13.066406 -2.25 13.234375 -2.25 C 13.359375 -2.25 13.820312 -2.445312 14.625 -2.84375 L 15.015625 -3.046875 L 15.578125 -1.9375 C 15.390625 -1.757812 15.140625 -1.546875 14.828125 -1.296875 C 14.523438 -1.046875 13.953125 -0.703125 13.109375 -0.265625 C 12.265625 0.160156 11.503906 0.375 10.828125 0.375 C 9.523438 0.375 8.765625 -0.210938 8.546875 -1.390625 C 7.203125 -0.210938 5.984375 0.375 4.890625 0.375 C 3.804688 0.375 2.890625 -0.046875 2.140625 -0.890625 C 1.390625 -1.734375 1.015625 -3.0625 1.015625 -4.875 C 1.015625 -7.707031 1.59375 -9.941406 2.75 -11.578125 C 3.914062 -13.210938 5.320312 -14.03125 6.96875 -14.03125 C 8.144531 -14.03125 9.285156 -13.722656 10.390625 -13.109375 Z M 6.78125 -2.3125 C 7.28125 -2.3125 7.847656 -2.507812 8.484375 -2.90625 C 8.628906 -5.882812 9.128906 -8.832031 9.984375 -11.75 C 9.347656 -12.019531 8.804688 -12.15625 8.359375 -12.15625 C 7.597656 -12.15625 6.945312 -11.410156 6.40625 -9.921875 C 5.875 -8.441406 5.609375 -6.800781 5.609375 -5 C 5.609375 -3.207031 6 -2.3125 6.78125 -2.3125 Z M 6.78125 -2.3125 "/></g></g></g><g fill="#171716" fill-opacity="1"><g transform="translate(69.745827, 27.906031)"><g><path d="M 3.40625 0.375 C 2.675781 0.375 2.070312 0.132812 1.59375 -0.34375 C 1.125 -0.832031 0.890625 -1.515625 0.890625 -2.390625 C 0.890625 -3.265625 1.410156 -6.0625 2.453125 -10.78125 C 3.492188 -15.5 4.015625 -18.90625 4.015625 -21 L 3.828125 -22.390625 C 5.472656 -22.960938 7.015625 -23.25 8.453125 -23.25 C 8.660156 -22.945312 8.765625 -22.425781 8.765625 -21.6875 C 8.765625 -20 8.234375 -16.734375 7.171875 -11.890625 C 6.109375 -7.046875 5.578125 -4.226562 5.578125 -3.4375 C 5.578125 -2.644531 5.671875 -2.25 5.859375 -2.25 L 8.078125 -3.046875 L 8.640625 -1.9375 C 7.921875 -1.363281 7.050781 -0.832031 6.03125 -0.34375 C 5.007812 0.132812 4.132812 0.375 3.40625 0.375 Z M 3.40625 0.375 "/></g></g></g><g fill="#171716" fill-opacity="1"><g transform="translate(76.364002, 27.906031)"><g><path d="M 3.40625 0.375 C 2.675781 0.375 2.070312 0.132812 1.59375 -0.34375 C 1.125 -0.832031 0.890625 -1.515625 0.890625 -2.390625 C 0.890625 -3.265625 1.410156 -6.0625 2.453125 -10.78125 C 3.492188 -15.5 4.015625 -18.90625 4.015625 -21 L 3.828125 -22.390625 C 5.472656 -22.960938 7.015625 -23.25 8.453125 -23.25 C 8.660156 -22.945312 8.765625 -22.425781 8.765625 -21.6875 C 8.765625 -20 8.234375 -16.734375 7.171875 -11.890625 C 6.109375 -7.046875 5.578125 -4.226562 5.578125 -3.4375 C 5.578125 -2.644531 5.671875 -2.25 5.859375 -2.25 L 8.078125 -3.046875 L 8.640625 -1.9375 C 7.921875 -1.363281 7.050781 -0.832031 6.03125 -0.34375 C 5.007812 0.132812 4.132812 0.375 3.40625 0.375 Z M 3.40625 0.375 "/></g></g></g><g fill="#171716" fill-opacity="1"><g transform="translate(82.982178, 27.906031)"><g><path d="M 0.828125 -5.484375 C 0.828125 -8.117188 1.625 -10.203125 3.21875 -11.734375 C 4.8125 -13.265625 6.617188 -14.03125 8.640625 -14.03125 C 9.890625 -14.03125 10.914062 -13.722656 11.71875 -13.109375 C 12.519531 -12.492188 12.921875 -11.675781 12.921875 -10.65625 C 12.921875 -9.632812 12.660156 -8.773438 12.140625 -8.078125 C 11.628906 -7.378906 11.003906 -6.84375 10.265625 -6.46875 C 8.765625 -5.726562 7.390625 -5.257812 6.140625 -5.0625 L 5.390625 -4.96875 C 5.535156 -2.988281 6.347656 -2 7.828125 -2 C 8.328125 -2 8.863281 -2.125 9.4375 -2.375 C 10.007812 -2.625 10.453125 -2.878906 10.765625 -3.140625 L 11.25 -3.515625 L 12 -2.5 C 11.832031 -2.269531 11.492188 -1.960938 10.984375 -1.578125 C 10.484375 -1.203125 10.007812 -0.890625 9.5625 -0.640625 C 8.34375 0.0351562 7.003906 0.375 5.546875 0.375 C 4.085938 0.375 2.9375 -0.140625 2.09375 -1.171875 C 1.25 -2.203125 0.828125 -3.640625 0.828125 -5.484375 Z M 5.359375 -6.53125 C 6.429688 -6.71875 7.285156 -7.171875 7.921875 -7.890625 C 8.554688 -8.609375 8.875 -9.535156 8.875 -10.671875 C 8.875 -11.816406 8.535156 -12.390625 7.859375 -12.390625 C 7.054688 -12.390625 6.4375 -11.707031 6 -10.34375 C 5.570312 -8.976562 5.359375 -7.707031 5.359375 -6.53125 Z M 5.359375 -6.53125 "/></g></g></g><g fill="#171716" fill-opacity="1"><g transform="translate(93.812268, 27.906031)"><g><path d="M 1.578125 0.09375 L 1.359375 0.09375 C 1.316406 -0.0703125 1.296875 -0.457031 1.296875 -1.0625 C 1.296875 -1.664062 1.582031 -3.285156 2.15625 -5.921875 C 2.726562 -8.554688 3.015625 -10.066406 3.015625 -10.453125 C 3.015625 -11.109375 2.71875 -11.828125 2.125 -12.609375 L 1.84375 -12.984375 L 1.875 -13.390625 C 3.007812 -13.710938 4.832031 -13.875 7.34375 -13.875 C 7.601562 -13.320312 7.734375 -12.550781 7.734375 -11.5625 C 7.960938 -11.9375 8.445312 -12.441406 9.1875 -13.078125 C 9.925781 -13.710938 10.6875 -14.03125 11.46875 -14.03125 C 12.601562 -14.03125 13.171875 -13.035156 13.171875 -11.046875 C 13.066406 -10.921875 12.925781 -10.757812 12.75 -10.5625 C 12.570312 -10.363281 12.210938 -10.082031 11.671875 -9.71875 C 11.128906 -9.363281 10.609375 -9.144531 10.109375 -9.0625 C 10.085938 -9.0625 9.90625 -9.34375 9.5625 -9.90625 C 9.226562 -10.476562 8.976562 -10.765625 8.8125 -10.765625 C 8.28125 -10.578125 7.8125 -10.257812 7.40625 -9.8125 C 6.4375 -5.445312 5.953125 -2.617188 5.953125 -1.328125 C 5.953125 -0.867188 5.960938 -0.539062 5.984375 -0.34375 C 5.242188 -0.0507812 3.773438 0.09375 1.578125 0.09375 Z M 1.578125 0.09375 "/></g></g></g><g fill="#171716" fill-opacity="1"><g transform="translate(103.533963, 27.906031)"><g><path d="M 5.265625 3.40625 C 4.566406 3.832031 4.21875 4.242188 4.21875 4.640625 C 4.21875 5.046875 4.441406 5.25 4.890625 5.25 C 5.347656 5.25 5.859375 5.03125 6.421875 4.59375 C 6.992188 4.164062 7.472656 3.46875 7.859375 2.5 C 6.835938 2.6875 5.972656 2.988281 5.265625 3.40625 Z M 3.734375 0.125 C 1.960938 0.125 1.078125 -0.84375 1.078125 -2.78125 C 1.078125 -3.25 1.285156 -4.59375 1.703125 -6.8125 C 2.128906 -9.03125 2.34375 -10.878906 2.34375 -12.359375 C 2.34375 -12.671875 2.300781 -12.960938 2.21875 -13.234375 C 3.351562 -13.679688 4.914062 -13.90625 6.90625 -13.90625 C 7.007812 -13.601562 7.0625 -13.09375 7.0625 -12.375 C 7.0625 -11.664062 6.828125 -10.179688 6.359375 -7.921875 C 5.898438 -5.660156 5.671875 -4.203125 5.671875 -3.546875 C 5.671875 -2.890625 5.945312 -2.5625 6.5 -2.5625 C 7.144531 -2.5625 7.9375 -2.890625 8.875 -3.546875 C 8.976562 -4.796875 9.398438 -8.078125 10.140625 -13.390625 C 10.878906 -13.691406 12.207031 -13.84375 14.125 -13.84375 L 14.734375 -13.84375 C 14.328125 -12.257812 13.929688 -9.976562 13.546875 -7 C 13.171875 -4.019531 12.867188 -1.953125 12.640625 -0.796875 C 12.191406 1.523438 11.367188 3.421875 10.171875 4.890625 C 8.984375 6.359375 7.429688 7.09375 5.515625 7.09375 C 4.753906 7.09375 4.0625 6.890625 3.4375 6.484375 C 2.8125 6.085938 2.5 5.570312 2.5 4.9375 C 2.5 4.09375 3.015625 3.320312 4.046875 2.625 C 5.085938 1.925781 6.484375 1.390625 8.234375 1.015625 C 8.421875 0.0859375 8.566406 -0.804688 8.671875 -1.671875 C 6.960938 -0.472656 5.316406 0.125 3.734375 0.125 Z M 3.734375 0.125 "/></g></g></g></svg>